<svg width="329" height="139" viewBox="0 0 329 139" fill="none" xmlns="http://www.w3.org/2000/svg">
<path d="M29.9162 89.8435C29.9162 90.392 29.6295 91.6135 29.0561 93.5082C28.4827 95.4029 28.0838 96.3503 27.8594 96.3503C26.7376 95.8517 25.6033 95.3531 24.4565 94.8545C23.3346 94.3559 22.1006 94.1066 20.7543 94.1066C17.6879 94.1066 15.1326 95.2409 13.0883 97.5095C11.0441 99.7782 10.0219 102.458 10.0219 105.549C10.0219 108.591 11.0441 111.221 13.0883 113.44C15.1825 115.733 17.7378 116.88 20.7543 116.88C22.4247 116.88 24.0701 116.469 25.6905 115.646C27.311 114.823 28.0215 114.412 27.822 114.412C28.1461 114.412 28.5076 115.459 28.9065 117.553C29.2805 119.448 29.4674 120.757 29.4674 121.48C29.4674 122.253 28.009 123.013 25.0922 123.761C22.649 124.384 20.8416 124.696 19.6699 124.696C14.5343 124.696 10.1964 122.776 6.65635 118.937C3.19106 115.197 1.45841 110.735 1.45841 105.549C1.45841 100.264 3.15366 95.7769 6.54416 92.0872C10.0344 88.2978 14.3847 86.4031 19.5951 86.4031C23.0853 86.4031 26.2764 87.2882 29.1683 89.0582C29.6669 89.3574 29.9162 89.6191 29.9162 89.8435ZM70.9761 89.9183C70.9761 90.018 70.9387 90.2424 70.8639 90.5914C69.8917 96.3004 69.4055 101.224 69.4055 105.363C69.4055 105.612 69.7171 111.209 70.3404 122.153L70.3778 122.676C70.4027 123.399 70.0662 123.761 69.3681 123.761C68.695 123.761 67.6604 123.836 66.2643 123.985C64.8932 124.16 63.871 124.247 63.1979 124.247C62.7242 124.247 62.3628 123.375 62.1134 121.629C61.8641 119.884 61.6273 119.012 61.4029 119.012C61.2534 119.012 60.5802 119.498 59.3836 120.47C57.9127 121.667 56.5416 122.577 55.2701 123.2C53.3006 124.197 51.3312 124.696 49.3617 124.696C44.5252 124.696 40.4492 122.764 37.1334 118.9C33.9922 115.21 32.4217 110.909 32.4217 105.998C32.4217 100.464 34.0047 95.8891 37.1708 92.2742C40.4866 88.5097 44.8493 86.6275 50.2592 86.6275C54.0735 86.6275 57.4017 87.9488 60.2437 90.5914C60.6675 91.09 61.3281 91.813 62.2256 92.7603C62.3004 92.8351 62.3752 92.8725 62.45 92.8725C62.5996 92.8725 62.8115 92.0872 63.0857 90.5166C63.36 88.946 63.709 88.1607 64.1328 88.1607C64.8059 88.1607 66.0649 88.3477 67.9097 88.7216C69.954 89.1704 70.9761 89.5693 70.9761 89.9183ZM61.4403 105.549C61.4403 102.483 60.5304 99.8529 58.7105 97.6591C56.7909 95.2907 54.3352 94.1066 51.3436 94.1066C48.352 94.1066 45.859 95.2783 43.8646 97.6217C41.945 99.8654 40.9852 102.508 40.9852 105.549C40.9852 108.566 41.945 111.184 43.8646 113.402C45.859 115.721 48.352 116.88 51.3436 116.88C54.2605 116.88 56.7036 115.696 58.6731 113.328C60.5179 111.109 61.4403 108.516 61.4403 105.549ZM94.6099 112.243C94.6099 115.958 93.1265 118.937 90.1599 121.181C87.4674 123.225 84.1891 124.247 80.3249 124.247C78.8291 124.247 77.9815 124.21 77.782 124.135C77.3582 123.935 77.1463 123.325 77.1463 122.303C77.1463 121.754 77.0715 120.931 76.922 119.834C76.7973 118.738 76.735 117.927 76.735 117.404C76.735 117.08 76.9593 116.868 77.4081 116.768C77.7322 116.693 78.1934 116.693 78.7917 116.768C79.5645 116.843 79.9385 116.88 79.9136 116.88C84.6254 116.88 86.9813 115.434 86.9813 112.542C86.9813 111.171 85.9467 109.912 83.8775 108.765C80.5119 106.921 78.5798 105.786 78.0812 105.363C76.012 103.592 74.9774 101.274 74.9774 98.407C74.9774 94.6675 76.386 91.7507 79.2031 89.6565C81.7459 87.7868 84.9619 86.8519 88.851 86.8519C89.2 86.8519 89.4493 87.0139 89.5989 87.338C89.7734 87.6621 90.0851 88.6718 90.5338 90.367C91.0075 92.0623 91.2443 93.0844 91.2443 93.4334C91.2443 93.7077 91.0075 93.8822 90.5338 93.957C88.9383 94.1813 87.3303 94.3932 85.7098 94.5927C83.7902 95.1162 82.8304 96.1633 82.8304 97.7339C82.8304 98.8557 83.8401 99.9901 85.8594 101.137C88.851 102.807 90.7457 104.016 91.5435 104.764C93.5878 106.709 94.6099 109.202 94.6099 112.243ZM136.343 89.9183C136.343 90.018 136.306 90.2424 136.231 90.5914C135.258 96.3004 134.772 101.224 134.772 105.363C134.772 105.612 135.084 111.209 135.707 122.153L135.745 122.676C135.77 123.399 135.433 123.761 134.735 123.761C134.062 123.761 133.027 123.836 131.631 123.985C130.26 124.16 129.238 124.247 128.565 124.247C128.091 124.247 127.73 123.375 127.48 121.629C127.231 119.884 126.994 119.012 126.77 119.012C126.62 119.012 125.947 119.498 124.75 120.47C123.28 121.667 121.908 122.577 120.637 123.2C118.667 124.197 116.698 124.696 114.729 124.696C109.892 124.696 105.816 122.764 102.5 118.9C99.3591 115.21 97.7885 110.909 97.7885 105.998C97.7885 100.464 99.3715 95.8891 102.538 92.2742C105.853 88.5097 110.216 86.6275 115.626 86.6275C119.44 86.6275 122.768 87.9488 125.611 90.5914C126.034 91.09 126.695 91.813 127.592 92.7603C127.667 92.8351 127.742 92.8725 127.817 92.8725C127.966 92.8725 128.178 92.0872 128.453 90.5166C128.727 88.946 129.076 88.1607 129.5 88.1607C130.173 88.1607 131.432 88.3477 133.277 88.7216C135.321 89.1704 136.343 89.5693 136.343 89.9183ZM126.807 105.549C126.807 102.483 125.897 99.8529 124.077 97.6591C122.158 95.2907 119.702 94.1066 116.71 94.1066C113.719 94.1066 111.226 95.2783 109.231 97.6217C107.312 99.8654 106.352 102.508 106.352 105.549C106.352 108.566 107.312 111.184 109.231 113.402C111.226 115.721 113.719 116.88 116.71 116.88C119.627 116.88 122.07 115.696 124.04 113.328C125.885 111.109 126.807 108.516 126.807 105.549ZM191.837 79.0363C191.837 82.1027 190.13 83.6359 186.714 83.6359C183.249 83.6359 181.516 82.1027 181.516 79.0363C181.516 77.6651 182.052 76.5308 183.124 75.6333C184.122 74.7857 185.318 74.3619 186.714 74.3619C188.11 74.3619 189.307 74.7982 190.304 75.6707C191.326 76.5433 191.837 77.6651 191.837 79.0363ZM191.576 89.1704C191.576 91.09 191.451 93.9944 191.202 97.8835C190.977 101.748 190.865 104.652 190.865 106.597C190.865 108.416 190.903 111.146 190.977 114.786C191.052 118.401 191.09 121.106 191.09 122.901C191.09 123.424 190.865 123.686 190.416 123.686H183.124C182.601 123.686 182.339 123.175 182.339 122.153C182.339 120.433 182.376 117.853 182.451 114.412C182.551 110.947 182.601 108.342 182.601 106.597C182.601 104.652 182.451 101.735 182.152 97.8461C181.878 93.957 181.741 91.0401 181.741 89.0956C181.741 88.6718 182.002 88.4599 182.526 88.4599C182.975 88.4599 183.66 88.5222 184.583 88.6469C185.53 88.7715 186.241 88.8338 186.714 88.8338C187.188 88.8338 187.886 88.7715 188.808 88.6469C189.756 88.5222 190.466 88.4599 190.94 88.4599C191.364 88.4599 191.576 88.6967 191.576 89.1704ZM231.962 123.013C231.962 123.562 231.713 123.836 231.215 123.836C230.392 123.836 229.158 123.823 227.512 123.798C225.892 123.773 224.67 123.761 223.848 123.761C223.399 123.761 223.175 123.399 223.175 122.676C223.175 121.455 223.212 119.598 223.287 117.105C223.362 114.612 223.399 112.742 223.399 111.495C223.399 110.498 223.387 109.015 223.362 107.045C223.337 105.051 223.324 103.555 223.324 102.558C223.324 99.7158 222.913 97.709 222.09 96.5372C221.093 95.1412 219.248 94.4431 216.556 94.4431C215.309 94.4431 213.577 95.1412 211.358 96.5372C209.014 98.0081 207.843 99.317 207.843 100.464V122.901C207.843 123.524 207.606 123.836 207.132 123.836C206.334 123.836 205.138 123.823 203.542 123.798C201.947 123.773 200.75 123.761 199.952 123.761C199.429 123.761 199.167 123.474 199.167 122.901C199.167 120.931 199.192 117.977 199.242 114.038C199.316 110.099 199.354 107.133 199.354 105.138C199.354 99.828 198.793 94.9292 197.671 90.4418C197.596 90.2174 197.559 90.0554 197.559 89.9557C197.559 89.7064 197.721 89.5319 198.045 89.4322C198.22 89.4072 199.641 89.1828 202.308 88.759C205.001 88.3103 206.409 88.0859 206.534 88.0859C206.683 88.0859 206.783 88.2854 206.833 88.6842C206.958 90.2299 207.244 91.788 207.693 93.3586C208.989 92.3365 210.697 91.0651 212.816 89.5443C215.434 87.9488 217.964 87.151 220.407 87.151C225.094 87.151 228.298 88.5097 230.018 91.2271C231.289 93.2215 231.925 96.45 231.925 100.912C231.925 101.685 231.9 102.869 231.85 104.465C231.825 106.061 231.813 107.257 231.813 108.055C231.813 109.725 231.838 112.218 231.888 115.534C231.938 118.85 231.962 121.343 231.962 123.013ZM275.042 71.5946C275.042 74.8106 274.892 79.6346 274.593 86.0666C274.319 92.4736 274.182 97.2727 274.182 100.464C274.182 110.311 274.394 117.765 274.817 122.826L274.855 123.312C274.88 123.562 274.543 123.724 273.845 123.798C273.371 123.848 272.698 123.848 271.826 123.798C270.779 123.724 270.293 123.686 270.367 123.686C269.993 123.686 269.445 123.724 268.722 123.798C267.999 123.873 267.451 123.911 267.077 123.911C266.728 123.911 266.516 123.05 266.441 121.33C266.391 119.585 266.304 118.7 266.179 118.675C266.03 118.75 265.843 118.912 265.618 119.161C262.203 122.851 258.276 124.696 253.839 124.696C248.803 124.696 244.664 122.776 241.423 118.937C238.357 115.322 236.824 110.959 236.824 105.849C236.824 100.539 238.37 96.076 241.461 92.4612C244.702 88.6718 248.927 86.7771 254.138 86.7771C257.279 86.7771 260.021 87.6995 262.365 89.5443C263.437 90.4668 264.496 91.4016 265.543 92.349C265.743 92.2742 265.843 92.0997 265.843 91.8254V79.7094C265.843 78.8867 265.805 77.6402 265.73 75.9699C265.656 74.2996 265.618 73.0406 265.618 72.193C265.618 71.5946 265.818 71.2955 266.217 71.2955C267.139 71.2955 268.51 71.2207 270.33 71.0711C272.15 70.8966 273.509 70.8093 274.406 70.8093C274.83 70.8093 275.042 71.0711 275.042 71.5946ZM265.693 105.624C265.693 102.633 264.771 100.003 262.926 97.7339C260.956 95.3157 258.513 94.1066 255.596 94.1066C252.53 94.1066 249.999 95.3032 248.005 97.6965C246.11 99.9402 245.163 102.633 245.163 105.774C245.163 108.765 246.148 111.371 248.117 113.589C250.137 115.933 252.63 117.105 255.596 117.105C258.588 117.105 261.056 115.92 263.001 113.552C264.796 111.333 265.693 108.691 265.693 105.624ZM318.084 89.9183C318.084 90.018 318.046 90.2424 317.972 90.5914C316.999 96.3004 316.513 101.224 316.513 105.363C316.513 105.612 316.825 111.209 317.448 122.153L317.485 122.676C317.51 123.399 317.174 123.761 316.476 123.761C315.803 123.761 314.768 123.836 313.372 123.985C312.001 124.16 310.979 124.247 310.305 124.247C309.832 124.247 309.47 123.375 309.221 121.629C308.972 119.884 308.735 119.012 308.511 119.012C308.361 119.012 307.688 119.498 306.491 120.47C305.02 121.667 303.649 122.577 302.378 123.2C300.408 124.197 298.439 124.696 296.469 124.696C291.633 124.696 287.557 122.764 284.241 118.9C281.1 115.21 279.529 110.909 279.529 105.998C279.529 100.464 281.112 95.8891 284.278 92.2742C287.594 88.5097 291.957 86.6275 297.367 86.6275C301.181 86.6275 304.509 87.9488 307.351 90.5914C307.775 91.09 308.436 91.813 309.333 92.7603C309.408 92.8351 309.483 92.8725 309.558 92.8725C309.707 92.8725 309.919 92.0872 310.193 90.5166C310.468 88.946 310.817 88.1607 311.24 88.1607C311.913 88.1607 313.172 88.3477 315.017 88.7216C317.062 89.1704 318.084 89.5693 318.084 89.9183ZM308.548 105.549C308.548 102.483 307.638 99.8529 305.818 97.6591C303.898 95.2907 301.443 94.1066 298.451 94.1066C295.46 94.1066 292.967 95.2783 290.972 97.6217C289.053 99.8654 288.093 102.508 288.093 105.549C288.093 108.566 289.053 111.184 290.972 113.402C292.967 115.721 295.46 116.88 298.451 116.88C301.368 116.88 303.811 115.696 305.781 113.328C307.625 111.109 308.548 108.516 308.548 105.549Z" fill="#111111"/>
<path d="M177.814 115.646C177.814 119.136 177.627 121.617 177.253 123.088C177.079 123.811 176.643 124.172 175.944 124.172C174.1 124.172 171.332 124.06 167.643 123.836C163.953 123.636 161.186 123.537 159.341 123.537C157.596 123.537 154.991 123.574 151.525 123.649C148.06 123.724 145.455 123.761 143.71 123.761C143.087 123.761 142.775 123.449 142.775 122.826C142.775 120.109 142.862 116.008 143.037 110.523C143.236 105.038 143.336 100.925 143.336 98.1826C143.336 95.2907 143.199 90.9654 142.925 85.2065C142.675 79.4227 142.551 75.0849 142.551 72.193C142.551 71.6445 142.862 71.3703 143.485 71.3703C143.934 71.3703 144.62 71.4077 145.542 71.4824C146.465 71.5572 147.163 71.5946 147.636 71.5946C148.085 71.5946 148.783 71.5572 149.73 71.4824C150.678 71.4077 151.376 71.3703 151.825 71.3703C152.423 71.3703 152.722 71.6071 152.722 72.0808C152.722 74.7234 152.622 78.6997 152.423 84.0098C152.223 89.32 152.124 93.3088 152.124 95.9763C152.124 97.2727 152.124 99.2422 152.124 101.885C152.099 104.527 152.086 106.497 152.086 107.793C152.086 113.328 152.311 116.095 152.759 116.095C161.959 116.095 168.902 115.871 173.589 115.422C173.813 115.397 174.386 115.31 175.309 115.16C176.057 115.01 176.63 114.936 177.029 114.936C177.552 114.936 177.814 115.173 177.814 115.646Z" fill="#F48117"/>
<path d="M234.573 5L237.395 1.1338C235.661 -0.13206 233.296 -0.0882449 231.61 1.24098L234.573 5ZM320.526 73.6655C322.662 75.224 325.656 74.7565 327.215 72.6213C328.773 70.4861 328.306 67.4916 326.17 65.9331L320.526 73.6655ZM148.762 78.7422L237.537 8.75902L231.61 1.24098L142.835 71.2242L148.762 78.7422ZM231.751 8.8662L320.526 73.6655L326.17 65.9331L237.395 1.1338L231.751 8.8662Z" fill="#F48117"/>
</svg>
